<svg width="492.004" height="492.004" xmlns="http://www.w3.org/2000/svg"><path fill="currentColor" d="M-1-1h582v402H-1z"/><g><path d="M109.326 265.2l218.948 218.944c5.064 5.068 11.824 7.86 19.032 7.86s13.968-2.792 19.032-7.86l16.124-16.12c10.492-10.504 10.492-27.576 0-38.064L198.606 246.104l184.06-184.06c5.064-5.068 7.86-11.824 7.86-19.028 0-7.212-2.796-13.968-7.86-19.04L366.542 7.86C361.474 2.792 354.718 0 347.51 0s-13.968 2.792-19.032 7.86L109.326 227.004c-5.076 5.084-7.864 11.872-7.848 19.088-.016 7.244 2.772 14.028 7.848 19.108z"/></g></svg>